<?xml version="1.0" encoding="UTF-8" standalone="no"?>
<!-- Created with Inkscape (http://www.inkscape.org/) -->

<svg
   xmlns:dc="http://purl.org/dc/elements/1.1/"
   xmlns:cc="http://creativecommons.org/ns#"
   xmlns:rdf="http://www.w3.org/1999/02/22-rdf-syntax-ns#"
   xmlns:svg="http://www.w3.org/2000/svg"
   xmlns="http://www.w3.org/2000/svg"
   xmlns:sodipodi="http://sodipodi.sourceforge.net/DTD/sodipodi-0.dtd"
   xmlns:inkscape="http://www.inkscape.org/namespaces/inkscape"
   width="386.04831"
   height="385.30432"
   viewBox="0 0 102.14195 101.94511"
   version="1.1"
   id="svg8"
   inkscape:version="0.92.4 (5da689c313, 2019-01-14)"
   sodipodi:docname="alphabet.svg">
  <defs
     id="defs2">
    <inkscape:perspective
       sodipodi:type="inkscape:persp3d"
       inkscape:vp_x="0 : 148.50001 : 1"
       inkscape:vp_y="0 : 1000 : 0"
       inkscape:vp_z="210.00001 : 148.50001 : 1"
       inkscape:persp3d-origin="105 : 99.000006 : 1"
       id="perspective4534" />
  </defs>
  <sodipodi:namedview
     id="base"
     pagecolor="#606060"
     bordercolor="#000000"
     borderopacity="1"
     inkscape:pageopacity="1"
     inkscape:pageshadow="2"
     inkscape:zoom="1.28"
     inkscape:cx="328.08836"
     inkscape:cy="192.23225"
     inkscape:document-units="px"
     inkscape:current-layer="layer2"
     showgrid="false"
     inkscape:pagecheckerboard="true"
     borderlayer="true"
     inkscape:showpageshadow="false"
     inkscape:snap-page="true"
     inkscape:window-width="1920"
     inkscape:window-height="1017"
     inkscape:window-x="-8"
     inkscape:window-y="-8"
     inkscape:window-maximized="1"
     units="px"
     fit-margin-top="0"
     fit-margin-left="0"
     fit-margin-right="0"
     fit-margin-bottom="0" />
  <metadata
     id="metadata5">
    <rdf:RDF>
      <cc:Work
         rdf:about="">
        <dc:format>image/svg+xml</dc:format>
        <dc:type
           rdf:resource="http://purl.org/dc/dcmitype/StillImage" />
        <dc:title></dc:title>
      </cc:Work>
    </rdf:RDF>
  </metadata>
  <g
     inkscape:label="Background"
     inkscape:groupmode="layer"
     id="layer1"
     style="display:inline"
     transform="translate(-316.83964,-81.535891)" />
  <g
     inkscape:groupmode="layer"
     id="layer2"
     inkscape:label="Layer 1"
     transform="translate(-316.83964,-81.535891)"
     style="display:inline">
    <circle
       r="42.994793"
       cy="118.40623"
       cx="203.39845"
       id="circle829"
       style="opacity:0.3;fill:none;fill-opacity:1;stroke:none;stroke-width:1.11124992;stroke-linecap:round;stroke-linejoin:round;stroke-miterlimit:4;stroke-dasharray:none;stroke-opacity:0.8405797;paint-order:stroke fill markers" />
    <g
       aria-label="ABCDEFGHIJKLMNOPQRSTUVWXZ"
       transform="rotate(-94.099132,292.14148,48.886748)"
       style="font-style:normal;font-variant:normal;font-weight:500;font-stretch:normal;font-size:11.28888893px;line-height:120.00000477%;font-family:Poppins;-inkscape-font-specification:'Poppins Medium';font-variant-ligatures:normal;font-variant-caps:normal;font-variant-numeric:normal;font-feature-settings:normal;text-align:start;letter-spacing:3.54012489px;word-spacing:0px;writing-mode:lr-tb;text-anchor:start;fill:#000000;fill-opacity:1;stroke:none;stroke-width:0.08462403"
       id="text827">
      <path
         d="m 247.79542,124.07895 0.29742,-3.35092 -1.66654,-0.75991 0.12176,-1.37185 7.55556,3.61726 -0.13074,1.47305 -8.07355,2.21873 0.12176,-1.37185 z m 1.02147,-0.272 3.82752,-0.98628 -3.59398,-1.64498 z"
         style="font-style:normal;font-variant:normal;font-weight:500;font-stretch:normal;font-size:11.28888893px;font-family:Poppins;-inkscape-font-specification:'Poppins Medium';letter-spacing:3.54012489px;stroke-width:0.08462403"
         id="path876" />
      <path
         d="m 247.29431,135.58589 q -0.38075,0.63132 -1.03896,0.86417 -0.662,0.24348 -1.34257,9.7e-4 -0.93579,-0.33344 -1.2652,-1.15788 -0.31877,-0.82065 0.10561,-2.01166 l 1.06475,-2.98814 7.50759,2.67513 -1.0458,2.93497 q -0.40165,1.12721 -1.12428,1.54083 -0.71577,0.42805 -1.59839,0.11355 -0.71248,-0.25387 -1.02649,-0.78521 -0.30337,-0.52754 -0.23626,-1.18673 z m 1.36653,-2.55704 -0.53427,1.49939 q -0.22735,0.63804 -0.0471,1.07379 0.1765,0.44638 0.7082,0.63584 0.52106,0.18567 0.94006,-0.0485 0.41522,-0.22356 0.65772,-0.90413 l 0.51912,-1.45686 z m -3.8209,0.36424 q -0.2463,0.69121 -0.0705,1.17328 0.18261,0.4965 0.74621,0.69732 0.5636,0.20083 1.01903,-0.0683 0.45543,-0.26915 0.70172,-0.96036 l 0.54185,-1.52066 -2.39265,-0.85255 z"
         style="font-style:normal;font-variant:normal;font-weight:500;font-stretch:normal;font-size:11.28888893px;font-family:Poppins;-inkscape-font-specification:'Poppins Medium';letter-spacing:3.54012489px;stroke-width:0.08462403"
         id="path878" />
      <path
         d="m 245.34379,147.50002 q -0.8364,1.20588 -2.00194,1.57898 -1.16553,0.3731 -2.40673,-0.0756 l 0.7785,-1.1224 q 0.75451,0.17987 1.45159,-0.0923 0.69992,-0.25642 1.20819,-0.98922 0.40534,-0.58439 0.43948,-1.24764 0.0277,-0.65397 -0.32372,-1.29614 -0.34858,-0.62646 -1.06284,-1.12187 -0.70497,-0.48898 -1.42313,-0.60242 -0.71531,-0.0977 -1.31813,0.15735 -0.60925,0.26435 -1.01458,0.84874 -0.50828,0.7328 -0.5125,1.47176 -0.001,0.75466 0.42216,1.3919 l -0.7785,1.12239 q -0.85517,-1.0053 -0.91407,-2.22768 -0.0496,-1.21594 0.78678,-2.42181 0.64339,-0.9276 1.55622,-1.35233 0.92211,-0.41829 1.94368,-0.28674 1.03086,0.13799 2.00484,0.81355 0.97398,0.67556 1.45511,1.58629 0.49041,0.91717 0.42169,1.92738 -0.0687,1.01021 -0.7121,1.93781 z"
         style="font-style:normal;font-variant:normal;font-weight:500;font-stretch:normal;font-size:11.28888893px;font-family:Poppins;-inkscape-font-specification:'Poppins Medium';letter-spacing:3.54012489px;stroke-width:0.08462403"
         id="path880" />
      <path
         d="m 230.50656,156.95755 q -0.76775,-0.93253 -0.95829,-1.94546 -0.19208,-0.99704 0.2243,-1.98322 0.40766,-0.97901 1.41863,-1.81133 l 2.05681,-1.69334 5.06566,6.15299 -2.0568,1.69334 q -1.01098,0.83231 -2.05005,1.04438 -1.04062,0.22796 -1.98221,-0.15202 -0.95031,-0.3728 -1.71805,-1.30534 z m 1.50212,-4.90692 q -1.10684,0.91125 -1.22592,1.97437 -0.11907,1.06312 0.73477,2.10024 0.85384,1.03711 1.92004,1.12441 1.0662,0.0873 2.17304,-0.82394 l 0.98483,-0.8108 -3.60193,-4.37507 z"
         style="font-style:normal;font-variant:normal;font-weight:500;font-stretch:normal;font-size:11.28888893px;font-family:Poppins;-inkscape-font-specification:'Poppins Medium';letter-spacing:3.54012489px;stroke-width:0.08462403"
         id="path882" />
      <path
         d="m 225.59883,163.1436 -1.03836,-2.18128 -2.65016,1.26156 -0.42699,-0.89698 2.65016,-1.26156 -1.06262,-2.23225 -2.95595,1.40713 -0.45125,-0.94794 4.11794,-1.96027 3.42562,7.1962 -4.11793,1.96027 -0.4464,-0.93775 z"
         style="font-style:normal;font-variant:normal;font-weight:500;font-stretch:normal;font-size:11.28888893px;font-family:Poppins;-inkscape-font-specification:'Poppins Medium';letter-spacing:3.54012489px;stroke-width:0.08462403"
         id="path884" />
      <path
         d="m 212.29693,168.66077 -0.23129,-1.0125 3.33464,-0.76175 -0.55058,-2.41018 -2.75134,0.62851 -0.22124,-0.96848 2.75135,-0.6285 -0.77181,-3.37866 1.25462,-0.2866 1.7749,7.76981 z"
         style="font-style:normal;font-variant:normal;font-weight:500;font-stretch:normal;font-size:11.28888893px;font-family:Poppins;-inkscape-font-specification:'Poppins Medium';letter-spacing:3.54012489px;stroke-width:0.08462403"
         id="path886" />
      <path
         d="m 201.98331,169.41944 q -1.42191,-0.0374 -2.35144,-0.76202 -0.92954,-0.7246 -1.20247,-1.94011 l 1.3542,0.0356 q 0.24264,0.65008 0.83065,1.0495 0.57672,0.39913 1.38924,0.4205 0.74481,0.0196 1.35212,-0.31451 0.59602,-0.33439 0.95149,-0.96873 0.34419,-0.63464 0.36705,-1.50358 0.024,-0.91408 -0.29729,-1.57752 -0.32133,-0.66343 -0.92152,-1.0293 -0.61176,-0.35488 -1.42428,-0.37625 -0.99308,-0.0261 -1.72007,0.56456 -0.72728,0.60197 -0.90219,1.67019 l 2.92281,0.0769 -0.0249,0.94793 -4.00617,-0.10539 0.0324,-1.23006 q 0.15857,-0.87666 0.67411,-1.58584 0.50396,-0.69819 1.32776,-1.10564 0.81251,-0.40776 1.85073,-0.38044 1.16236,0.0306 2.04021,0.57314 0.87786,0.54256 1.33907,1.46941 0.46091,0.93813 0.42974,2.12305 -0.0312,1.18493 -0.54047,2.08625 -0.5096,0.9126 -1.40319,1.39727 -0.90517,0.49565 -2.06752,0.46508 z"
         style="font-style:normal;font-variant:normal;font-weight:500;font-stretch:normal;font-size:11.28888893px;font-family:Poppins;-inkscape-font-specification:'Poppins Medium';letter-spacing:3.54012489px;stroke-width:0.08462403"
         id="path888" />
      <path
         d="m 185.20475,166.13113 2.3701,-7.60939 1.23949,0.38606 -1.0642,3.41668 3.57836,1.11456 1.06419,-3.41668 1.22871,0.3827 -2.3701,7.60939 -1.22871,-0.3827 0.9937,-3.19034 -3.57836,-1.11456 -0.99369,3.19034 z"
         style="font-style:normal;font-variant:normal;font-weight:500;font-stretch:normal;font-size:11.28888893px;font-family:Poppins;-inkscape-font-specification:'Poppins Medium';letter-spacing:3.54012489px;stroke-width:0.08462403"
         id="path890" />
      <path
         d="m 177.97319,162.58895 3.89293,-6.95451 1.12297,0.6286 -3.89293,6.95452 z"
         style="font-style:normal;font-variant:normal;font-weight:500;font-stretch:normal;font-size:11.28888893px;font-family:Poppins;-inkscape-font-specification:'Poppins Medium';letter-spacing:3.54012489px;stroke-width:0.08462403"
         id="path892" />
      <path
         d="m 169.28922,156.33307 3.6858,-4.45222 q 0.68389,-0.8261 1.5263,-0.90544 0.84242,-0.0793 1.65982,0.59736 0.88696,0.73428 0.96658,1.66486 0.0796,0.93058 -0.69785,1.86972 l -0.98262,-0.81347 q 0.41754,-0.50435 0.4392,-0.95539 0.013,-0.45823 -0.43051,-0.82537 -0.4087,-0.33835 -0.79438,-0.26194 -0.38567,0.0764 -0.69522,0.45033 l -3.6858,4.45222 z"
         style="font-style:normal;font-variant:normal;font-weight:500;font-stretch:normal;font-size:11.28888893px;font-family:Poppins;-inkscape-font-specification:'Poppins Medium';letter-spacing:3.54012489px;stroke-width:0.08462403"
         id="path894" />
      <path
         d="m 166.0989,147.0477 1.07823,-5.23502 0.95092,1.24821 -1.02776,4.74243 2.93642,-2.23704 0.77989,1.0237 -6.3398,4.82982 -0.77989,-1.02371 2.90051,-2.20967 -4.81601,-0.30469 -0.94408,-1.23923 z"
         style="font-style:normal;font-variant:normal;font-weight:500;font-stretch:normal;font-size:11.28888893px;font-family:Poppins;-inkscape-font-specification:'Poppins Medium';letter-spacing:3.54012489px;stroke-width:0.08462403"
         id="path896" />
      <path
         d="m 163.55424,137.10124 -1.14542,-2.50504 0.91372,-0.41779 1.68058,3.67542 -7.24819,3.3142 -0.53516,-1.17038 z"
         style="font-style:normal;font-variant:normal;font-weight:500;font-stretch:normal;font-size:11.28888893px;font-family:Poppins;-inkscape-font-specification:'Poppins Medium';letter-spacing:3.54012489px;stroke-width:0.08462403"
         id="path898" />
      <path
         d="m 152.60133,123.08457 7.7298,-1.34407 0.2224,1.27903 -5.79457,1.00757 6.18328,1.22796 0.19339,1.1122 -5.40391,3.25421 5.79456,-1.00757 0.22047,1.26791 -7.7298,1.34407 -0.26687,-1.53484 5.72791,-3.63138 -6.60978,-1.44025 z"
         style="font-style:normal;font-variant:normal;font-weight:500;font-stretch:normal;font-size:11.28888893px;font-family:Poppins;-inkscape-font-specification:'Poppins Medium';letter-spacing:3.54012489px;stroke-width:0.08462403"
         id="path900" />
      <path
         d="m 161.0609,110.21364 -0.148,1.2784 -6.2878,3.16998 5.84248,0.67642 -0.148,1.27839 -7.90586,-0.9153 0.148,-1.27839 6.31023,-3.16739 -5.86491,-0.67901 0.148,-1.27839 z"
         style="font-style:normal;font-variant:normal;font-weight:500;font-stretch:normal;font-size:11.28888893px;font-family:Poppins;-inkscape-font-specification:'Poppins Medium';letter-spacing:3.54012489px;stroke-width:0.08462403"
         id="path902" />
      <path
         d="m 156.26702,98.720078 q 0.42637,-1.02085 1.24924,-1.643649 0.82723,-0.633216 1.88761,-0.740866 1.05432,-0.122419 2.13767,0.330052 1.08335,0.452472 1.74781,1.292753 0.6584,0.825514 0.79994,1.863344 0.13547,1.023058 -0.2909,2.043908 -0.43071,1.03127 -1.25794,1.66449 -0.8333,0.61844 -1.88761,0.74086 -1.06473,0.11807 -2.14808,-0.3344 -1.08335,-0.45247 -1.7374,-1.2884 -0.66447,-0.84028 -0.79994,-1.86335 -0.13112,-1.033475 0.2996,-2.064742 z m 1.10418,0.461173 q -0.29584,0.708345 -0.20351,1.395309 0.0923,0.68696 0.56599,1.25181 0.47801,0.55443 1.28011,0.88943 0.80209,0.335 1.53244,0.28525 0.7347,-0.0602 1.28821,-0.47738 0.55351,-0.41722 0.84935,-1.12557 0.2915,-0.69793 0.19481,-1.37447 -0.0923,-0.686968 -0.57034,-1.241397 -0.47366,-0.564845 -1.27575,-0.899847 -0.8021,-0.335003 -1.5368,-0.274838 -0.73034,0.04975 -1.28385,0.46697 -0.54916,0.406804 -0.84066,1.104733 z"
         style="font-style:normal;font-variant:normal;font-weight:500;font-stretch:normal;font-size:11.28888893px;font-family:Poppins;-inkscape-font-specification:'Poppins Medium';letter-spacing:3.54012489px;stroke-width:0.08462403"
         id="path904" />
      <path
         d="m 166.1751,91.197335 2.4459,1.89345 -0.78778,1.01764 -6.30223,-4.878743 1.6585,-2.1424 q 0.84307,-1.089053 1.78235,-1.232776 0.94619,-0.15265 1.84778,0.5453 0.89267,0.69104 0.97506,1.654223 0.0735,0.956273 -0.74887,2.018546 z m -0.0424,-1.660307 q 0.97437,-1.25866 -0.11468,-2.101729 -0.5356,-0.414624 -1.04729,-0.32534 -0.51369,0.07345 -1.02506,0.734021 l -0.78779,1.01764 2.18704,1.693048 z"
         style="font-style:normal;font-variant:normal;font-weight:500;font-stretch:normal;font-size:11.28888893px;font-family:Poppins;-inkscape-font-specification:'Poppins Medium';letter-spacing:3.54012489px;stroke-width:0.08462403"
         id="path906" />
      <path
         d="m 180.29869,83.840268 -2.06852,-0.369256 q -0.33119,0.422291 -0.78035,0.764131 -0.88933,0.676843 -1.92247,0.810562 -1.031,0.117899 -2.00485,-0.304227 -0.98068,-0.43111 -1.6917,-1.365358 -0.71103,-0.934249 -0.85842,-1.985361 -0.15423,-1.060095 0.24094,-2.013428 0.40416,-0.960169 1.2935,-1.637012 0.88035,-0.670007 1.90451,-0.796889 1.03315,-0.133719 2.00484,0.304228 0.97384,0.422126 1.68487,1.356374 0.68368,0.898316 0.85119,1.919935 0.1675,1.021618 -0.17592,1.94975 l 2.789,0.402562 z m -7.41686,-1.264054 q 0.52643,0.691703 1.18348,1.014459 0.66603,0.31592 1.35407,0.232047 0.68805,-0.08387 1.29891,-0.548775 0.60187,-0.458066 0.85705,-1.092057 0.26417,-0.640829 0.12815,-1.360119 -0.12704,-0.726128 -0.65348,-1.417831 -0.52643,-0.691703 -1.19246,-1.007622 -0.65705,-0.322756 -1.34509,-0.238884 -0.67907,0.07704 -1.28094,0.535102 -0.61086,0.464902 -0.87502,1.105731 -0.26417,0.640828 -0.13713,1.366955 0.13602,0.719291 0.66246,1.410994 z"
         style="font-style:normal;font-variant:normal;font-weight:500;font-stretch:normal;font-size:11.28888893px;font-family:Poppins;-inkscape-font-specification:'Poppins Medium';letter-spacing:3.54012489px;stroke-width:0.08462403"
         id="path908" />
      <path
         d="m 188.70311,77.956756 -3.03882,-2.201723 -0.84718,0.344117 1.19804,2.949435 -1.19233,0.484313 -2.99934,-7.384046 2.60429,-1.057842 q 1.26553,-0.514052 2.16464,-0.16037 0.90957,0.349434 1.32167,1.363956 0.35261,0.868096 0.0862,1.622095 -0.25595,0.749751 -1.11262,1.280492 l 3.1542,2.215783 z m -4.23012,-2.704784 1.31783,-0.535294 q 1.44334,-0.586274 0.92504,-1.86227 -0.2464,-0.606622 -0.73795,-0.796865 -0.48535,-0.204951 -1.22794,0.09668 l -1.31783,0.535293 z"
         style="font-style:normal;font-variant:normal;font-weight:500;font-stretch:normal;font-size:11.28888893px;font-family:Poppins;-inkscape-font-specification:'Poppins Medium';letter-spacing:3.54012489px;stroke-width:0.08462403"
         id="path910" />
      <path
         d="m 199.43188,73.376751 q 0.0864,0.58063 -0.11799,1.124635 -0.20604,0.532839 -0.73064,0.919056 -0.52461,0.386217 -1.35089,0.509167 -0.80395,0.119628 -1.48194,-0.06482 -0.67966,-0.195609 -1.13573,-0.652752 -0.45607,-0.457143 -0.61159,-1.118793 l 1.36224,-0.202702 q 0.13226,0.505326 0.56673,0.817312 0.44564,0.310324 1.09327,0.213957 0.58063,-0.0864 0.84675,-0.445566 0.27729,-0.36083 0.20419,-0.852131 -0.0631,-0.424307 -0.3375,-0.657398 -0.27602,-0.244257 -0.64543,-0.349074 -0.3694,-0.104817 -1.00227,-0.216084 -0.77185,-0.124826 -1.27571,-0.289528 -0.49269,-0.166364 -0.88297,-0.564819 -0.39027,-0.398454 -0.49827,-1.124241 -0.0947,-0.636459 0.1465,-1.163117 0.2412,-0.526658 0.78362,-0.869872 0.54075,-0.354381 1.30004,-0.467363 1.20592,-0.179441 1.99577,0.296514 0.80102,0.474294 1.04108,1.397281 l -1.37341,0.204363 q -0.14462,-0.435007 -0.53729,-0.696147 -0.38316,-0.273968 -0.97496,-0.185909 -0.53596,0.07975 -0.81824,0.407084 -0.28393,0.316166 -0.20751,0.8298 0.0598,0.401974 0.32301,0.636727 0.26154,0.223587 0.61978,0.330065 0.36774,0.09365 0.98944,0.206579 0.78301,0.123165 1.28854,0.299033 0.51502,0.163041 0.90696,0.572662 0.4031,0.407959 0.51442,1.156077 z"
         style="font-style:normal;font-variant:normal;font-weight:500;font-stretch:normal;font-size:11.28888893px;font-family:Poppins;-inkscape-font-specification:'Poppins Medium';letter-spacing:3.54012489px;stroke-width:0.08462403"
         id="path912" />
      <path
         d="m 210.32279,67.828457 -0.0821,1.035325 -2.21695,-0.175864 -0.54813,6.909671 -1.29415,-0.102662 0.54812,-6.909671 -2.20569,-0.174972 0.0821,-1.035326 z"
         style="font-style:normal;font-variant:normal;font-weight:500;font-stretch:normal;font-size:11.28888893px;font-family:Poppins;-inkscape-font-specification:'Poppins Medium';letter-spacing:3.54012489px;stroke-width:0.08462403"
         id="path914" />
      <path
         d="m 217.80869,69.476741 -1.4935,4.488071 q -0.33505,1.006871 -0.0599,1.645736 0.28591,0.642431 1.08927,0.909763 0.79264,0.263769 1.39577,-0.08281 0.61384,-0.343018 0.9489,-1.349888 l 1.4935,-4.488071 1.2211,0.406346 -1.4935,4.488071 q -0.51684,1.553151 -1.58753,2.089172 -1.06712,0.52531 -2.38462,0.08688 -1.30679,-0.434861 -1.83567,-1.491272 -0.52531,-1.067122 -0.008,-2.620273 l 1.4935,-4.488071 z"
         style="font-style:normal;font-variant:normal;font-weight:500;font-stretch:normal;font-size:11.28888893px;font-family:Poppins;-inkscape-font-specification:'Poppins Medium';letter-spacing:3.54012489px;stroke-width:0.08462403"
         id="path916" />
      <path
         d="m 229.50791,74.569577 -1.7165,6.765288 5.55208,-4.235773 1.16858,0.770663 -6.79093,5.068539 -1.37591,-0.907393 1.9941,-8.231987 z"
         style="font-style:normal;font-variant:normal;font-weight:500;font-stretch:normal;font-size:11.28888893px;font-family:Poppins;-inkscape-font-specification:'Poppins Medium';letter-spacing:3.54012489px;stroke-width:0.08462403"
         id="path918" />
      <path
         d="m 246.17942,90.20854 -7.42626,3.509762 -1.0009,-1.223113 3.7049,-5.205248 -5.83538,2.601764 -1.0009,-1.223113 4.90971,-6.585018 0.89366,1.092065 -4.14255,5.169542 6.1229,-2.749525 0.90081,1.100801 -3.90663,5.457847 5.88698,-3.03783 z"
         style="font-style:normal;font-variant:normal;font-weight:500;font-stretch:normal;font-size:11.28888893px;font-family:Poppins;-inkscape-font-specification:'Poppins Medium';letter-spacing:3.54012489px;stroke-width:0.08462403"
         id="path920" />
      <path
         d="m 243.85807,103.7134 1.99755,-2.88632 -3.37359,-0.45378 -0.56331,-1.367355 4.69934,0.737843 2.64826,-3.825909 0.58481,1.419543 -1.95826,2.833508 3.3171,0.46484 0.56331,1.36736 -4.63241,-0.75321 -2.69799,3.88303 z"
         style="font-style:normal;font-variant:normal;font-weight:500;font-stretch:normal;font-size:11.28888893px;font-family:Poppins;-inkscape-font-specification:'Poppins Medium';letter-spacing:3.54012489px;stroke-width:0.08462403"
         id="path922" />
      <path
         d="m 246.74551,110.46159 0.58775,3.82722 -1.0377,0.15936 -0.80538,-5.24429 0.99307,-0.15251 6.42259,2.8512 -0.56376,-3.671 1.0377,-0.15937 0.78481,5.1104 -0.99306,0.15251 z"
         style="font-style:normal;font-variant:normal;font-weight:500;font-stretch:normal;font-size:11.28888893px;font-family:Poppins;-inkscape-font-specification:'Poppins Medium';letter-spacing:3.54012489px;stroke-width:0.08462403"
         id="path924" />
    </g>
    <g
       aria-label="Feelings"
       style="font-style:normal;font-variant:normal;font-weight:500;font-stretch:normal;font-size:11.28888988px;line-height:120.00000477%;font-family:Poppins;-inkscape-font-specification:'Poppins Medium';font-variant-ligatures:normal;font-variant-caps:normal;font-variant-numeric:normal;font-feature-settings:normal;text-align:start;letter-spacing:0px;word-spacing:0px;writing-mode:lr-tb;text-anchor:start;fill:#000000;fill-opacity:1;stroke:none;stroke-width:0.26458335"
       id="text837">
      <path
         d="m 349.99656,127.40587 v 1.03858 h -3.42053 v 2.47226 h 2.82222 v 0.99342 h -2.82222 v 3.46569 h -1.28693 v -7.96995 z"
         style="font-style:normal;font-variant:normal;font-weight:500;font-stretch:normal;font-family:Poppins;-inkscape-font-specification:'Poppins Medium';stroke-width:0.26458335"
         id="path927" />
      <path
         d="m 356.93394,131.96658 q 0,0.31609 -0.0452,0.55315 h -4.78649 q 0.0339,0.95956 0.53058,1.4224 0.49671,0.46285 1.23049,0.46285 0.64347,0 1.08373,-0.32738 0.45156,-0.32738 0.55316,-0.86924 h 1.37724 q -0.12417,0.65475 -0.51928,1.16275 -0.39512,0.508 -1.02729,0.80151 -0.63218,0.28223 -1.41112,0.28223 -0.90311,0 -1.60302,-0.38383 -0.68862,-0.38382 -1.08373,-1.10631 -0.39511,-0.72249 -0.39511,-1.70462 0,-0.97084 0.39511,-1.69333 0.39511,-0.72249 1.08373,-1.10631 0.69991,-0.38383 1.60302,-0.38383 0.9144,0 1.59174,0.38383 0.68862,0.37253 1.04987,1.03857 0.37253,0.65476 0.37253,1.46756 z m -1.29822,-0.0339 q 0.0226,-0.6096 -0.21449,-1.016 -0.22578,-0.41769 -0.63218,-0.6096 -0.39511,-0.2032 -0.86925,-0.2032 -0.75635,0 -1.26435,0.46285 -0.508,0.46284 -0.55316,1.36595 z"
         style="font-style:normal;font-variant:normal;font-weight:500;font-stretch:normal;font-family:Poppins;-inkscape-font-specification:'Poppins Medium';stroke-width:0.26458335"
         id="path929" />
      <path
         d="m 363.9454,131.96658 q 0,0.31609 -0.0452,0.55315 h -4.78649 q 0.0339,0.95956 0.53058,1.4224 0.49671,0.46285 1.23049,0.46285 0.64347,0 1.08373,-0.32738 0.45156,-0.32738 0.55316,-0.86924 h 1.37724 q -0.12417,0.65475 -0.51929,1.16275 -0.39511,0.508 -1.02728,0.80151 -0.63218,0.28223 -1.41112,0.28223 -0.90311,0 -1.60302,-0.38383 -0.68862,-0.38382 -1.08373,-1.10631 -0.39511,-0.72249 -0.39511,-1.70462 0,-0.97084 0.39511,-1.69333 0.39511,-0.72249 1.08373,-1.10631 0.69991,-0.38383 1.60302,-0.38383 0.9144,0 1.59174,0.38383 0.68862,0.37253 1.04986,1.03857 0.37254,0.65476 0.37254,1.46756 z m -1.29822,-0.0339 q 0.0226,-0.6096 -0.21449,-1.016 -0.22578,-0.41769 -0.63218,-0.6096 -0.39511,-0.2032 -0.86925,-0.2032 -0.75635,0 -1.26435,0.46285 -0.508,0.46284 -0.55316,1.36595 z"
         style="font-style:normal;font-variant:normal;font-weight:500;font-stretch:normal;font-family:Poppins;-inkscape-font-specification:'Poppins Medium';stroke-width:0.26458335"
         id="path931" />
      <path
         d="m 366.46388,127.02205 v 8.35377 h -1.28694 v -8.35377 z"
         style="font-style:normal;font-variant:normal;font-weight:500;font-stretch:normal;font-family:Poppins;-inkscape-font-specification:'Poppins Medium';stroke-width:0.26458335"
         id="path933" />
      <path
         d="m 367.84059,127.34942 q 0,-0.32737 0.22578,-0.54186 0.22578,-0.21449 0.59831,-0.21449 0.37254,0 0.59831,0.21449 0.23707,0.21449 0.23707,0.54186 0,0.32738 -0.23707,0.53058 -0.22577,0.2032 -0.59831,0.2032 -0.37253,0 -0.59831,-0.2032 -0.22578,-0.2032 -0.22578,-0.53058 z m 1.46756,1.80623 v 6.22017 h -1.28693 v -6.22017 z"
         style="font-style:normal;font-variant:normal;font-weight:500;font-stretch:normal;font-family:Poppins;-inkscape-font-specification:'Poppins Medium';stroke-width:0.26458335"
         id="path935" />
      <path
         d="m 374.34247,129.05405 q 1.08373,0 1.73848,0.69991 0.65476,0.69991 0.65476,1.99813 v 3.62373 h -1.28693 v -3.48826 q 0,-0.83538 -0.42898,-1.28694 -0.42898,-0.46284 -1.17405,-0.46284 -0.76764,0 -1.23049,0.49671 -0.46284,0.48542 -0.46284,1.43369 v 3.30764 h -1.28693 v -6.22017 h 1.28693 v 1.36595 q 0.24836,-0.69991 0.83538,-1.08373 0.58702,-0.38382 1.35467,-0.38382 z"
         style="font-style:normal;font-variant:normal;font-weight:500;font-stretch:normal;font-family:Poppins;-inkscape-font-specification:'Poppins Medium';stroke-width:0.26458335"
         id="path937" />
      <path
         d="m 380.72457,129.07662 q 0.84667,0 1.44498,0.41769 0.59831,0.41769 0.84666,1.10631 v -1.44497 h 1.28694 v 6.28791 q 0,0.86924 -0.36125,1.53529 -0.34995,0.67733 -1.016,1.06115 -0.66604,0.38382 -1.58044,0.38382 -1.30951,0 -2.12231,-0.62088 -0.80152,-0.62089 -1.00472,-1.68205 h 1.27565 q 0.15804,0.55316 0.6096,0.85796 0.45156,0.31609 1.15147,0.31609 0.76764,0 1.26435,-0.47414 0.49671,-0.47413 0.49671,-1.37724 v -1.51271 q -0.24835,0.68862 -0.84666,1.10631 -0.59831,0.41769 -1.44498,0.41769 -0.8128,0 -1.45627,-0.38383 -0.63218,-0.38382 -0.99342,-1.10631 -0.36125,-0.72249 -0.36125,-1.70462 0,-0.97084 0.36125,-1.69333 0.36124,-0.72249 0.99342,-1.10631 0.64347,-0.38383 1.45627,-0.38383 z m 0.39511,1.12889 q -0.85796,0 -1.37724,0.55316 -0.508,0.54186 -0.508,1.50142 0,0.95956 0.508,1.51271 0.51928,0.54187 1.37724,0.54187 0.54187,0 0.97084,-0.24836 0.42898,-0.25964 0.67734,-0.72249 0.24835,-0.46284 0.24835,-1.08373 0,-0.6096 -0.24835,-1.07244 -0.24836,-0.47414 -0.67734,-0.72249 -0.42897,-0.25965 -0.97084,-0.25965 z"
         style="font-style:normal;font-variant:normal;font-weight:500;font-stretch:normal;font-family:Poppins;-inkscape-font-specification:'Poppins Medium';stroke-width:0.26458335"
         id="path939" />
      <path
         d="m 387.90183,129.07662 q 1.09502,0 1.74978,0.56445 0.66604,0.55315 0.8128,1.49013 h -1.2192 q -0.079,-0.508 -0.44027,-0.8128 -0.34995,-0.31609 -0.93698,-0.31609 -0.48542,0 -0.75635,0.23707 -0.25965,0.22578 -0.25965,0.62089 0,0.29351 0.19192,0.47413 0.19191,0.18062 0.47413,0.28222 0.29351,0.1016 0.82409,0.22578 0.69991,0.15805 1.12889,0.32738 0.44026,0.16933 0.74506,0.54187 0.31609,0.36124 0.31609,0.99342 0,0.77893 -0.59831,1.26435 -0.58702,0.48543 -1.59173,0.48543 -1.16276,0 -1.88525,-0.54187 -0.7112,-0.54187 -0.85795,-1.51271 h 1.25306 q 0.0564,0.508 0.45156,0.82409 0.39511,0.31609 1.03858,0.31609 0.46284,0 0.72249,-0.23707 0.27093,-0.24836 0.27093,-0.62089 0,-0.32738 -0.2032,-0.51929 -0.2032,-0.19191 -0.508,-0.29351 -0.3048,-0.11289 -0.83538,-0.22578 -0.67733,-0.15804 -1.10631,-0.31609 -0.41769,-0.15804 -0.72249,-0.508 -0.29351,-0.36124 -0.29351,-0.97084 0,-0.79022 0.58702,-1.27565 0.59831,-0.49671 1.64818,-0.49671 z"
         style="font-style:normal;font-variant:normal;font-weight:500;font-stretch:normal;font-family:Poppins;-inkscape-font-specification:'Poppins Medium';stroke-width:0.26458335"
         id="path941" />
    </g>
  </g>
</svg>
